<?xml version="1.0" encoding="UTF-8" standalone="no"?><svg xmlns="http://www.w3.org/2000/svg" xmlns:xlink="http://www.w3.org/1999/xlink" contentScriptType="application/ecmascript" contentStyleType="text/css" height="330px" preserveAspectRatio="none" style="width:224px;height:330px;background:#FFFFFF;" version="1.1" viewBox="0 0 224 330" width="224px" zoomAndPan="magnify"><defs><filter height="300%" id="f15lmcbirzzazx" width="300%" x="-1" y="-1"><feGaussianBlur result="blurOut" stdDeviation="2.0"/><feColorMatrix in="blurOut" result="blurOut2" type="matrix" values="0 0 0 0 0 0 0 0 0 0 0 0 0 0 0 0 0 0 .4 0"/><feOffset dx="4.0" dy="4.0" in="blurOut2" result="blurOut3"/><feBlend in="SourceGraphic" in2="blurOut3" mode="normal"/></filter></defs><g><!--MD5=[335f4d9be48430461c68bf6d6fdba145]
class App--><rect codeLine="2" fill="#FEFECE" filter="url(#f15lmcbirzzazx)" height="99.2188" id="App" style="stroke:#A80036;stroke-width:1.5;" width="102" x="57.5" y="7"/><ellipse cx="93.2" cy="23" fill="#ADD1B2" rx="11" ry="11" style="stroke:#A80036;stroke-width:1.0;"/><path d="M96.1688,28.6406 Q95.5906,28.9375 94.95,29.0781 Q94.3094,29.2344 93.6063,29.2344 Q91.1063,29.2344 89.7781,27.5938 Q88.4656,25.9375 88.4656,22.8125 Q88.4656,19.6875 89.7781,18.0313 Q91.1063,16.375 93.6063,16.375 Q94.3094,16.375 94.95,16.5313 Q95.6063,16.6875 96.1688,16.9844 L96.1688,19.7031 Q95.5438,19.125 94.95,18.8594 Q94.3563,18.5781 93.7313,18.5781 Q92.3875,18.5781 91.7,19.6563 Q91.0125,20.7188 91.0125,22.8125 Q91.0125,24.9063 91.7,25.9844 Q92.3875,27.0469 93.7313,27.0469 Q94.3563,27.0469 94.95,26.7813 Q95.5438,26.5 96.1688,25.9219 L96.1688,28.6406 Z " fill="#000000"/><text fill="#000000" font-family="sans-serif" font-size="12" lengthAdjust="spacing" textLength="24" x="111.8" y="27.1543">App</text><line style="stroke:#A80036;stroke-width:1.5;" x1="58.5" x2="158.5" y1="39" y2="39"/><text fill="#000000" font-family="sans-serif" font-size="11" lengthAdjust="spacing" text-decoration="underline" textLength="62" x="63.5" y="53.2104">Clock clock</text><text fill="#000000" font-family="sans-serif" font-size="11" lengthAdjust="spacing" text-decoration="underline" textLength="90" x="63.5" y="66.0151">Webcam[] cams</text><line style="stroke:#A80036;stroke-width:1.5;" x1="58.5" x2="158.5" y1="72.6094" y2="72.6094"/><text fill="#000000" font-family="sans-serif" font-size="11" lengthAdjust="spacing" text-decoration="underline" textLength="72" x="63.5" y="86.8198">void +main()</text><text fill="#000000" font-family="sans-serif" font-size="11" lengthAdjust="spacing" text-decoration="underline" textLength="63" x="63.5" y="99.6245">void +tick()</text><!--MD5=[136efcb64a4b89680f1095fe33c95043]
class Webcam--><rect codeLine="9" fill="#FEFECE" filter="url(#f15lmcbirzzazx)" height="150.4375" id="Webcam" style="stroke:#A80036;stroke-width:1.5;" width="203" x="7" y="166"/><ellipse cx="77.75" cy="182" fill="#ADD1B2" rx="11" ry="11" style="stroke:#A80036;stroke-width:1.0;"/><path d="M80.7188,187.6406 Q80.1406,187.9375 79.5,188.0781 Q78.8594,188.2344 78.1563,188.2344 Q75.6563,188.2344 74.3281,186.5938 Q73.0156,184.9375 73.0156,181.8125 Q73.0156,178.6875 74.3281,177.0313 Q75.6563,175.375 78.1563,175.375 Q78.8594,175.375 79.5,175.5313 Q80.1563,175.6875 80.7188,175.9844 L80.7188,178.7031 Q80.0938,178.125 79.5,177.8594 Q78.9063,177.5781 78.2813,177.5781 Q76.9375,177.5781 76.25,178.6563 Q75.5625,179.7188 75.5625,181.8125 Q75.5625,183.9063 76.25,184.9844 Q76.9375,186.0469 78.2813,186.0469 Q78.9063,186.0469 79.5,185.7813 Q80.0938,185.5 80.7188,184.9219 L80.7188,187.6406 Z " fill="#000000"/><text fill="#000000" font-family="sans-serif" font-size="12" lengthAdjust="spacing" textLength="53" x="98.25" y="186.1543">Webcam</text><line style="stroke:#A80036;stroke-width:1.5;" x1="8" x2="209" y1="198" y2="198"/><text fill="#000000" font-family="sans-serif" font-size="11" lengthAdjust="spacing" textLength="79" x="13" y="212.2104">String -socket</text><text fill="#000000" font-family="sans-serif" font-size="11" lengthAdjust="spacing" textLength="106" x="13" y="225.0151">resource -webcam</text><text fill="#000000" font-family="sans-serif" font-size="11" lengthAdjust="spacing" textLength="74" x="13" y="237.8198">String -name</text><text fill="#000000" font-family="sans-serif" font-size="11" lengthAdjust="spacing" textLength="97" x="13" y="250.6245">String -submitUrl</text><line style="stroke:#A80036;stroke-width:1.5;" x1="8" x2="209" y1="257.2188" y2="257.2188"/><text fill="#000000" font-family="sans-serif" font-size="11" lengthAdjust="spacing" textLength="87" x="13" y="271.4292">void +capture()</text><text fill="#000000" font-family="sans-serif" font-size="11" lengthAdjust="spacing" textLength="118" x="13" y="284.2339">String #makePhoto()</text><text fill="#000000" font-family="sans-serif" font-size="11" lengthAdjust="spacing" textLength="191" x="13" y="297.0386">String #overlayPhoto(String path)</text><text fill="#000000" font-family="sans-serif" font-size="11" lengthAdjust="spacing" textLength="179" x="13" y="309.8433">bool #submitPhoto(String path)</text><!--MD5=[9f74761ce5fdd253f0d1bc43c2b467e4]
link App to Webcam--><path codeLine="21" d="M108.5,106.41 C108.5,124.67 108.5,145.85 108.5,165.88 " fill="none" id="App-Webcam" style="stroke:#A80036;stroke-width:1.0;"/><!--MD5=[fd98efcd8a3fe60d37de27a77a35001c]
@startuml Class diagram (suggestion)

class App {
    {static} Clock clock
    {static} Webcam[] cams
    {static} void +main()
    {static} void +tick()
}

class Webcam {
    String -socket
    resource -webcam
    String -name
    String -submitUrl

    void +capture()
    String #makePhoto()
    String #overlayPhoto(String path)
    bool #submitPhoto(String path)
}

App O- - Webcam

@enduml

PlantUML version 1.2021.7(Sun May 23 14:40:07 CEST 2021)
(GPL source distribution)
Java Runtime: OpenJDK Runtime Environment
JVM: OpenJDK 64-Bit Server VM
Default Encoding: UTF-8
Language: en
Country: GB
--></g></svg>