<svg xmlns="http://www.w3.org/2000/svg" height="589" preserveAspectRatio="none" style="width:1077px;height:589px;background:#fff" width="1077"><path d="M8.5 6h236a3.75 3.75 0 0 1 2.5 2.5l7 19.797h813.5a2.5 2.5 0 0 1 2.5 2.5V579.5a2.5 2.5 0 0 1-2.5 2.5H8.5a2.5 2.5 0 0 1-2.5-2.5V8.5A2.5 2.5 0 0 1 8.5 6M6 28.297h248" style="stroke:#000;stroke-width:1.5;fill:none"/><text font-family="sans-serif" font-size="14" font-weight="bold" textLength="235" x="10" y="20.995">nl.gumbomillennium.plazacam</text><rect fill="#F1F1F1" height="145.781" rx="2.5" ry="2.5" style="stroke:#181818;stroke-width:.5" width="282" x="258" y="41"/><circle cx="381.25" cy="57" fill="#ADD1B2" style="stroke:#181818;stroke-width:1" r="11"/><path d="M384.219 62.64q-.578.297-1.219.438-.64.156-1.344.156-2.5 0-3.828-1.64-1.312-1.657-1.312-4.782 0-3.124 1.312-4.78 1.328-1.657 3.828-1.657.703 0 1.344.156.656.157 1.219.453v2.72q-.625-.579-1.219-.845-.594-.28-1.219-.28-1.344 0-2.031 1.077-.688 1.063-.688 3.157 0 2.093.688 3.171.688 1.063 2.031 1.063.625 0 1.219-.266.594-.281 1.219-.86v2.72Z"/><text font-family="sans-serif" font-size="14" textLength="27" x="401.75" y="61.847">App</text><path style="stroke:#181818;stroke-width:.5" d="M259 73h280"/><path fill="none" style="stroke:#c82930;stroke-width:1" d="M266 81h6v6h-6z"/><text font-family="sans-serif" font-size="14" textLength="78" x="278" y="89.995">Clock clock</text><path fill="none" style="stroke:#c82930;stroke-width:1" d="M266 97.297h6v6h-6z"/><text font-family="sans-serif" font-size="14" textLength="226" x="278" y="106.292">ConfigController ConfigController</text><path fill="none" style="stroke:#c82930;stroke-width:1" d="M266 113.594h6v6h-6z"/><text font-family="sans-serif" font-size="14" textLength="256" x="278" y="122.589">WebcamController webcamController</text><path fill="none" style="stroke:#c82930;stroke-width:1" d="M266 129.891h6v6h-6z"/><text font-family="sans-serif" font-size="14" textLength="233" x="278" y="138.886">UploadController uploadController</text><path style="stroke:#181818;stroke-width:.5" d="M259 146.188h280"/><circle cx="269" cy="157.188" fill="#84BE84" style="stroke:#038048;stroke-width:1" r="3"/><text font-family="sans-serif" font-size="14" text-decoration="underline" textLength="75" x="278" y="163.183">void main()</text><circle cx="269" cy="173.484" fill="#84BE84" style="stroke:#038048;stroke-width:1" r="3"/><text font-family="sans-serif" font-size="14" textLength="66" x="278" y="179.48">void tick()</text><rect fill="#F1F1F1" height="80.594" rx="2.5" ry="2.5" style="stroke:#181818;stroke-width:.5" width="151" x="22.5" y="263"/><circle cx="41.1" cy="279" fill="#ADD1B2" style="stroke:#181818;stroke-width:1" r="11"/><path d="M44.069 284.64q-.578.298-1.219.438-.64.156-1.344.156-2.5 0-3.828-1.64-1.312-1.656-1.312-4.781t1.312-4.782q1.328-1.656 3.828-1.656.703 0 1.344.156.656.156 1.219.453v2.72q-.625-.579-1.219-.845-.594-.28-1.219-.28-1.343 0-2.031 1.077-.688 1.063-.688 3.156 0 2.094.688 3.172.688 1.063 2.031 1.063.625 0 1.219-.266.594-.281 1.219-.86v2.72Z"/><text font-family="sans-serif" font-size="14" textLength="111" x="55.9" y="283.847">ConfigController</text><path style="stroke:#181818;stroke-width:.5" d="M23.5 295h149"/><path fill="none" style="stroke:#c82930;stroke-width:1" d="M30.5 303h6v6h-6z"/><text font-family="sans-serif" font-size="14" textLength="90" x="42.5" y="311.995">Config config</text><path style="stroke:#181818;stroke-width:.5" d="M23.5 319.297h149"/><circle cx="33.5" cy="330.297" fill="#84BE84" style="stroke:#038048;stroke-width:1" r="3"/><text font-family="sans-serif" font-size="14" textLength="125" x="42.5" y="336.292">Config getConfig()</text><rect fill="#F1F1F1" height="145.781" rx="2.5" ry="2.5" style="stroke:#181818;stroke-width:.5" width="312" x="22" y="420"/><circle cx="151.75" cy="436" fill="#ADD1B2" style="stroke:#181818;stroke-width:1" r="11"/><path d="M154.719 441.64q-.578.298-1.219.438-.64.156-1.344.156-2.5 0-3.828-1.64-1.312-1.656-1.312-4.781t1.312-4.782q1.328-1.656 3.828-1.656.703 0 1.344.156.656.156 1.219.453v2.72q-.625-.579-1.219-.845-.594-.28-1.219-.28-1.344 0-2.031 1.077-.688 1.063-.688 3.156 0 2.094.688 3.172.688 1.063 2.031 1.063.625 0 1.219-.266.594-.281 1.219-.86v2.72Z"/><text font-family="sans-serif" font-size="14" textLength="44" x="172.25" y="440.847">Config</text><path style="stroke:#181818;stroke-width:.5" d="M23 452h310"/><circle cx="33" cy="463" fill="none" style="stroke:#038048;stroke-width:1" r="3"/><text font-family="sans-serif" font-size="14" textLength="120" x="42" y="468.995">boolean isDefault</text><circle cx="33" cy="479.297" fill="none" style="stroke:#038048;stroke-width:1" r="3"/><text font-family="sans-serif" font-size="14" textLength="190" x="42" y="485.292">int captureIntervalInMinutes</text><circle cx="33" cy="495.594" fill="none" style="stroke:#038048;stroke-width:1" r="3"/><text font-family="sans-serif" font-size="14" textLength="129" x="42" y="501.589">String deviceName</text><circle cx="33" cy="511.891" fill="none" style="stroke:#038048;stroke-width:1" r="3"/><text font-family="sans-serif" font-size="14" textLength="113" x="42" y="517.886">String[] cameras</text><path style="stroke:#181818;stroke-width:.5" d="M23 525.188h310"/><circle cx="33" cy="536.188" fill="#84BE84" style="stroke:#038048;stroke-width:1" r="3"/><text font-family="sans-serif" font-size="14" text-decoration="underline" textLength="174" x="42" y="542.183">Config getDefaultConfig()</text><circle cx="33" cy="552.484" fill="#84BE84" style="stroke:#038048;stroke-width:1" r="3"/><text font-family="sans-serif" font-size="14" text-decoration="underline" textLength="286" x="42" y="558.48">Config getConfigFromFile(String fileName)</text><rect fill="#F1F1F1" height="96.891" rx="2.5" ry="2.5" style="stroke:#181818;stroke-width:.5" width="380" x="209" y="255"/><circle cx="331.25" cy="271" fill="#ADD1B2" style="stroke:#181818;stroke-width:1" r="11"/><path d="M334.219 276.64q-.578.298-1.219.438-.64.156-1.344.156-2.5 0-3.828-1.64-1.312-1.656-1.312-4.781t1.312-4.782q1.328-1.656 3.828-1.656.703 0 1.344.156.656.156 1.219.453v2.72q-.625-.579-1.219-.845-.594-.28-1.219-.28-1.344 0-2.031 1.077-.688 1.063-.688 3.156 0 2.094.688 3.172.688 1.063 2.031 1.063.625 0 1.219-.266.594-.281 1.219-.86v2.72Z"/><text font-family="sans-serif" font-size="14" textLength="127" x="351.75" y="275.847">WebcamController</text><path style="stroke:#181818;stroke-width:.5" d="M210 287h378"/><path fill="none" style="stroke:#c82930;stroke-width:1" d="M217 295h6v6h-6z"/><text font-family="sans-serif" font-size="14" textLength="140" x="229" y="303.995">Webcam[] webcams</text><path style="stroke:#181818;stroke-width:.5" d="M210 311.297h378"/><circle cx="220" cy="322.297" fill="#84BE84" style="stroke:#038048;stroke-width:1" r="3"/><text font-family="sans-serif" font-size="14" textLength="216" x="229" y="328.292">void addCamera(String camera)</text><circle cx="220" cy="338.594" fill="#84BE84" style="stroke:#038048;stroke-width:1" r="3"/><text font-family="sans-serif" font-size="14" textLength="354" x="229" y="344.589">CompletableFuture&lt;CharSequence[]&gt; takePhoto()</text><rect fill="#F1F1F1" height="80.594" rx="2.5" ry="2.5" style="stroke:#181818;stroke-width:.5" width="363" x="369.5" y="452.5"/><circle cx="516.75" cy="468.5" fill="#ADD1B2" style="stroke:#181818;stroke-width:1" r="11"/><path d="M519.719 474.14q-.578.298-1.219.438-.64.156-1.344.156-2.5 0-3.828-1.64-1.312-1.656-1.312-4.781t1.312-4.782q1.328-1.656 3.828-1.656.703 0 1.344.156.656.156 1.219.453v2.72q-.625-.579-1.219-.845-.594-.28-1.219-.28-1.343 0-2.031 1.077-.688 1.063-.688 3.156 0 2.094.688 3.172.688 1.063 2.031 1.063.625 0 1.219-.266.594-.281 1.219-.86v2.72Z"/><text font-family="sans-serif" font-size="14" textLength="60" x="537.25" y="473.347">Webcam</text><path style="stroke:#181818;stroke-width:.5" d="M370.5 484.5h361"/><path fill="none" style="stroke:#c82930;stroke-width:1" d="M377.5 492.5h6v6h-6z"/><text font-family="sans-serif" font-size="14" textLength="151" x="389.5" y="501.495">VideoCapture capture</text><path style="stroke:#181818;stroke-width:.5" d="M370.5 508.797h361"/><circle cx="380.5" cy="519.797" fill="#84BE84" style="stroke:#038048;stroke-width:1" r="3"/><text font-family="sans-serif" font-size="14" textLength="337" x="389.5" y="525.792">CompletableFuture&lt;CharSequence&gt; getPhoto()</text><rect fill="#F1F1F1" height="113.188" rx="2.5" ry="2.5" style="stroke:#181818;stroke-width:.5" width="430" x="624" y="247"/><circle cx="777.25" cy="263" fill="#ADD1B2" style="stroke:#181818;stroke-width:1" r="11"/><path d="M780.219 268.64q-.578.298-1.219.438-.64.156-1.344.156-2.5 0-3.828-1.64-1.312-1.656-1.312-4.781t1.312-4.782q1.328-1.656 3.828-1.656.703 0 1.344.156.656.156 1.219.453v2.72q-.625-.579-1.219-.845-.594-.28-1.219-.28-1.343 0-2.031 1.077-.688 1.063-.688 3.156 0 2.094.688 3.172.688 1.063 2.031 1.063.625 0 1.219-.266.594-.281 1.219-.86v2.72Z"/><text font-family="sans-serif" font-size="14" textLength="115" x="797.75" y="267.847">UploadController</text><path style="stroke:#181818;stroke-width:.5" d="M625 279h428"/><path fill="none" style="stroke:#c82930;stroke-width:1" d="M632 287h6v6h-6z"/><text font-family="sans-serif" font-size="14" text-decoration="underline" textLength="109" x="644" y="295.995">String uploadUrl</text><path fill="none" style="stroke:#c82930;stroke-width:1" d="M632 303.297h6v6h-6z"/><text font-family="sans-serif" font-size="14" textLength="137" x="644" y="312.292">String accessToken</text><path style="stroke:#181818;stroke-width:.5" d="M625 319.594h428"/><circle cx="635" cy="330.594" fill="#84BE84" style="stroke:#038048;stroke-width:1" r="3"/><text font-family="sans-serif" font-size="14" textLength="394" x="644" y="336.589">CompletableFuture&lt;void&gt; upload(CharSequence image)</text><circle cx="635" cy="346.891" fill="#84BE84" style="stroke:#038048;stroke-width:1" r="3"/><text font-family="sans-serif" font-size="14" textLength="404" x="644" y="352.886">CompletableFuture&lt;void&gt; upload(CharSequence[] image)</text><path d="M399 200.41v54.52" fill="none" style="stroke:#181818;stroke-width:1"/><path fill="#181818" style="stroke:#181818;stroke-width:1" d="m399 187.22-4 6 4 6 4-6-4-6z"/><path d="M271.86 194.2c-38.03 23.69-78.1 48.65-110.18 68.63" fill="none" style="stroke:#181818;stroke-width:1"/><path fill="#181818" style="stroke:#181818;stroke-width:1" d="m283.06 187.22-7.208-.222-2.977 6.568 7.208.222 2.977-6.568z"/><path d="M552.18 180.28c50.96 21.71 107.21 45.68 156.29 66.6" fill="none" style="stroke:#181818;stroke-width:1"/><path fill="#181818" style="stroke:#181818;stroke-width:1" d="m540.03 175.1 3.95 6.033 7.088-1.325-3.95-6.033-7.088 1.325z"/><path d="m446.21 362.74 72.53 89.46" fill="none" style="stroke:#181818;stroke-width:1"/><path fill="#181818" style="stroke:#181818;stroke-width:1" d="m437.75 352.3.67 7.18 6.886 2.143-.67-7.18-6.886-2.143z"/><path d="M120.12 356.34c8.36 19.59 18.03 42.27 27.05 63.4" fill="none" style="stroke:#181818;stroke-width:1"/><path fill="#181818" style="stroke:#181818;stroke-width:1" d="m114.97 344.26-1.325 7.088 6.033 3.95 1.325-7.088-6.033-3.95z"/></svg>
